{"title":"The Strawbs - Hero and Heroine FLAC","uid":4831768,"size":328640411,"categoryP":"audio","categoryS":"flac","magnet":"?xt=urn:btih:41e57c115c522042210e62751dc1b034771d5bd9&amp;dn=The+Strawbs+-+Hero+and+Heroine+FLAC&amp;tr=udp%3A%2F%2Ftracker.openbittorrent.com%3A80&amp;tr=udp%3A%2F%2Fopen.demonii.com%3A1337&amp;tr=udp%3A%2F%2Ftracker.coppersurfer.tk%3A6969&amp;tr=udp%3A%2F%2Fexodus.desync.com%3A6969","seeders":1,"leechers":0,"uploader":"ceco136","files":14,"time":1239160544,"description":"Exact Audio Copy V0.99 prebeta 3 from 28. July 2007\n\nEAC extraction logfile from 7. April 2009, 16:54\n\nThe Strawbs / Hero and Heroine\n\nUsed drive  : ATAPI   DVD D  DH16D3P   Adapter: 0  ID: 1\n\nRead mode               : Secure\nUtilize accurate stream : Yes\nDefeat audio cache      : No\nMake use of C2 pointers : No\n\nRead offset correction                      : 6\nOverread into Lead-In and Lead-Out          : No\nFill up missing offset samples with silence : Yes\nDelete leading and trailing silent blocks   : No\nNull samples used in CRC calculations       : No\nUsed interface                              : Installed external ASPI interface\nGap handling                                : Not detected, thus appended to previous track\n\nUsed output format : Internal WAV Routines\nSample format      : 44.100 Hz; 16 Bit; Stereo\n\n\nTOC of the extracted CD\n\n     Track |   Start  |  Length  | Start sector | End sector \n    ---------------------------------------------------------\n        1  |  0:00.00 |  8:28.08 |         0    |    38107   \n        2  |  8:28.08 |  4:08.32 |     38108    |    56739   \n        3  | 12:36.40 |  3:40.48 |     56740    |    73287   \n        4  | 16:17.13 |  2:46.37 |     73288    |    85774   \n        5  | 19:03.50 |  3:29.25 |     85775    |   101474   \n        6  | 22:33.00 |  3:06.05 |    101475    |   115429   \n        7  | 25:39.05 |  3:18.55 |    115430    |   130334   \n        8  | 28:57.60 |  4:43.65 |    130335    |   151624   \n        9  | 33:41.50 |  3:27.28 |    151625    |   167177   \n       10  | 37:09.03 |  2:27.37 |    167178    |   178239   \n       11  | 39:36.40 |  2:27.43 |    178240    |   189307   \n       12  | 42:04.08 |  2:22.32 |    189308    |   199989   \n\n\nTrack  1\n\n     Filename E:MusicThe StrawbsHero and HeroineThe Strawbs - Hero and Heroine - 01. Autumn.wav\n\n     Peak level 99.9 %\n     Track quality 100.0 %\n     Copy CRC E838DE3E\n     Track not present in AccurateRip database\n     Copy OK\n\nTrack  2\n\n     Filename E:MusicThe StrawbsHero and HeroineThe Strawbs - Hero and Heroine - 02. Sad Young Man.wav\n\n     Peak level 81.6 %\n     Track quality 100.0 %\n     Copy CRC 3C2A51DE\n     Track not present in AccurateRip database\n     Copy OK\n\nTrack  3\n\n     Filename E:MusicThe StrawbsHero and HeroineThe Strawbs - Hero and Heroine - 03. Just Love.wav\n\n     Peak level 99.9 %\n     Track quality 100.0 %\n     Copy CRC E678E18F\n     Track not present in AccurateRip database\n     Copy OK\n\nTrack  4\n\n     Filename E:MusicThe StrawbsHero and HeroineThe Strawbs - Hero and Heroine - 04. Shine on Silver Sun.wav\n\n     Peak level 99.9 %\n     Track quality 100.0 %\n     Copy CRC 7391893E\n     Track not present in AccurateRip database\n     Copy OK\n\nTrack  5\n\n     Filename E:MusicThe StrawbsHero and HeroineThe Strawbs - Hero and Heroine - 05. Hero and Heroine.wav\n\n     Peak level 99.9 %\n     Track quality 100.0 %\n     Copy CRC D0B58498\n     Track not present in AccurateRip database\n     Copy OK\n\nTrack  6\n\n     Filename E:MusicThe StrawbsHero and HeroineThe Strawbs - Hero and Heroine - 06. Midnight Sun.wav\n\n     Peak level 94.7 %\n     Track quality 100.0 %\n     Copy CRC 0AF85C57\n     Track not present in AccurateRip database\n     Copy OK\n\nTrack  7\n\n     Filename E:MusicThe StrawbsHero and HeroineThe Strawbs - Hero and Heroine - 07. Out in the Cold.wav\n\n     Peak level 99.9 %\n     Track quality 100.0 %\n     Copy CRC C96D58D2\n     Track not present in AccurateRip database\n     Copy OK\n\nTrack  8\n\n     Filename E:MusicThe StrawbsHero and HeroineThe Strawbs - Hero and Heroine - 08. Round and Round.wav\n\n     Peak level 99.9 %\n     Track quality 100.0 %\n     Copy CRC FEC4BB52\n     Track not present in AccurateRip database\n     Copy OK\n\nTrack  9\n\n     Filename E:MusicThe StrawbsHero and HeroineThe Strawbs - Hero and Heroine - 09. Lay a Little Light on Me.wav\n\n     Peak level 99.9 %\n     Track quality 100.0 %\n     Copy CRC 5B033F3D\n     Track not present in AccurateRip database\n     Copy OK\n\nTrack 10\n\n     Filename E:MusicThe StrawbsHero and HeroineThe Strawbs - Hero and Heroine - 10. Hero's Theme.wav\n\n     Peak level 98.0 %\n     Track quality 100.0 %\n     Copy CRC B6694EDF\n     Track not present in AccurateRip database\n     Copy OK\n\nTrack 11\n\n     Filename E:MusicThe StrawbsHero and HeroineThe Strawbs - Hero and Heroine - 11. Still Small Voice (Bonus Track).wav\n\n     Peak level 99.9 %\n     Track quality 100.0 %\n     Copy CRC 92E54FB8\n     Track not present in AccurateRip database\n     Copy OK\n\nTrack 12\n\n     Filename E:MusicThe StrawbsHero and HeroineThe Strawbs - Hero and Heroine - 12. Lay a Little Light on Me Early Ver (Bonus Track).wav\n\n     Peak level 99.9 %\n     Track quality 100.0 %\n     Copy CRC FBCE0BA8\n     Track not present in AccurateRip database\n     Copy OK\n\n\nNone of the tracks are present in the AccurateRip database\n\nNo errors occurred\n\nEnd of status report\n","torrent":{"xt":"urn:btih:41e57c115c522042210e62751dc1b034771d5bd9","amp;dn":"The+Strawbs+-+Hero+and+Heroine+FLAC","amp;tr":["udp%3A%2F%2Ftracker.openbittorrent.com%3A80","udp%3A%2F%2Fopen.demonii.com%3A1337","udp%3A%2F%2Ftracker.coppersurfer.tk%3A6969","udp%3A%2F%2Fexodus.desync.com%3A6969"],"infoHash":"41e57c115c522042210e62751dc1b034771d5bd9","infoHashBuffer":{"type":"Buffer","data":[65,229,124,17,92,82,32,66,33,14,98,117,29,193,176,52,119,29,91,217]},"announce":[],"urlList":[]}}